<?xml version="1.0" standalone="no"?>
<!DOCTYPE svg PUBLIC "-//W3C//DTD SVG 20010904//EN"
 "http://www.w3.org/TR/2001/REC-SVG-20010904/DTD/svg10.dtd">
<svg version="1.0" xmlns="http://www.w3.org/2000/svg"
 width="300.000000pt" height="300.000000pt" viewBox="0 0 300.000000 300.000000"
 preserveAspectRatio="xMidYMid meet">
<metadata>
Created by potrace 1.14, written by Peter Selinger 2001-2017
</metadata>
<g transform="translate(0.000000,300.000000) scale(0.100000,-0.100000)"
fill="#000000" stroke="none">
<path d="M1375 2860 c-457 -39 -877 -322 -1088 -737 -64 -126 -99 -227 -128
-367 -27 -132 -30 -361 -5 -491 109 -571 521 -988 1091 -1106 127 -26 358 -29
488 -5 568 104 1008 542 1111 1106 60 330 -14 697 -198 983 -60 93 -178 228
-257 293 -185 152 -347 235 -561 288 -92 23 -289 48 -343 45 -11 -1 -60 -5
-110 -9z m363 -106 c396 -82 716 -322 896 -674 57 -111 93 -213 122 -345 24
-109 23 -359 0 -470 -59 -269 -174 -485 -355 -665 -189 -187 -403 -301 -661
-353 -548 -111 -1121 171 -1376 676 -98 193 -137 358 -137 577 0 219 38 381
133 570 174 345 469 577 859 675 145 37 366 41 519 9z"/>
<path d="M875 2220 l-29 -30 69 -70 69 -70 -69 -70 -70 -70 33 -32 32 -33 70
70 70 69 69 -68 70 -69 33 31 32 32 -69 70 -69 70 69 70 70 70 -33 32 -32 33
-70 -70 -70 -69 -68 67 c-37 37 -70 67 -73 67 -3 0 -18 -14 -34 -30z"/>
<path d="M1775 2220 l-29 -30 69 -70 69 -70 -69 -70 -70 -70 33 -32 32 -33 70
70 70 69 70 -69 70 -70 32 33 33 32 -70 70 -69 70 69 70 70 70 -33 32 -32 33
-70 -70 -70 -69 -68 67 c-37 37 -70 67 -73 67 -3 0 -18 -14 -34 -30z"/>
<path d="M750 1010 l0 -39 93 -3 92 -3 5 -195 c5 -200 9 -217 52 -270 29 -35
87 -70 136 -81 106 -25 213 24 267 123 29 52 30 55 33 240 l4 188 407 2 406 3
3 38 3 37 -750 0 -751 0 0 -40z m382 -152 l3 -103 48 -3 47 -3 0 105 0 106 50
0 50 0 0 -170 c0 -182 -4 -203 -52 -248 -72 -67 -195 -38 -234 55 -10 23 -14
80 -14 198 l0 165 50 0 49 0 3 -102z"/>
</g>
</svg>
